<?xml version="1.0" encoding="utf-8"?>
<!-- Generator: Adobe Illustrator 16.0.0, SVG Export Plug-In . SVG Version: 6.00 Build 0)  -->
<!DOCTYPE svg PUBLIC "-//W3C//DTD SVG 1.1//EN" "http://www.w3.org/Graphics/SVG/1.1/DTD/svg11.dtd">
<svg version="1.1" id="Layer_1" xmlns="http://www.w3.org/2000/svg" xmlns:xlink="http://www.w3.org/1999/xlink" x="0px" y="0px"
	 width="426.428px" height="92.017px" viewBox="0 0 426.428 92.017" enable-background="new 0 0 426.428 92.017"
	 xml:space="preserve">
<g>
	<path fill="#99C29C" d="M20.844,66.618c1.584,0,2.988-0.132,4.212-0.396s2.304-0.588,3.24-0.973
		c0.936-0.383,1.733-0.81,2.394-1.277c0.66-0.469,1.236-0.895,1.728-1.278c0.492-0.384,0.906-0.708,1.242-0.972
		c0.336-0.264,0.636-0.396,0.9-0.396c0.216,0,0.396,0.043,0.54,0.126c0.144,0.085,0.264,0.187,0.36,0.306l2.34,2.916
		c-2.256,2.449-4.854,4.352-7.794,5.707c-2.94,1.355-6.367,2.033-10.278,2.033c-3.096,0-5.862-0.553-8.298-1.656
		c-2.436-1.104-4.5-2.646-6.192-4.625c-1.692-1.98-2.988-4.338-3.888-7.074S0,53.31,0,50.022c0-4.487,0.696-8.592,2.088-12.312
		c1.392-3.721,3.306-6.918,5.742-9.595c2.436-2.676,5.298-4.752,8.586-6.228c3.288-1.477,6.828-2.215,10.62-2.215
		c1.824,0,3.479,0.156,4.968,0.469c1.488,0.313,2.844,0.768,4.068,1.367c1.224,0.601,2.333,1.32,3.33,2.16
		c0.996,0.841,1.926,1.777,2.79,2.809l-2.304,2.809c-0.192,0.239-0.408,0.438-0.648,0.594c-0.24,0.156-0.54,0.233-0.9,0.233
		c-0.432,0-0.888-0.239-1.368-0.72c-0.48-0.48-1.134-1.002-1.962-1.566c-0.828-0.563-1.896-1.086-3.204-1.566
		c-1.309-0.479-3.006-0.719-5.094-0.719c-2.808,0-5.418,0.558-7.83,1.674c-2.412,1.115-4.506,2.712-6.282,4.787
		c-1.776,2.076-3.174,4.59-4.194,7.543c-1.021,2.951-1.53,6.264-1.53,9.936c0,2.664,0.348,5.053,1.044,7.164
		c0.696,2.112,1.662,3.906,2.898,5.382c1.236,1.476,2.706,2.61,4.41,3.401C16.932,66.222,18.804,66.618,20.844,66.618z"/>
	<path fill="#99C29C" d="M43.74,71.837l6.444-53.027h6.3L50.04,71.837H43.74z"/>
	<path fill="#99C29C" d="M70.811,35.371l-4.392,36.467h-6.3l4.392-36.467H70.811z M73.259,23.921c0,0.625-0.126,1.207-0.378,1.746
		c-0.252,0.541-0.588,1.021-1.008,1.44c-0.42,0.421-0.9,0.751-1.44,0.989c-0.54,0.24-1.098,0.361-1.674,0.361
		c-0.552,0-1.092-0.121-1.62-0.361c-0.528-0.238-0.99-0.568-1.386-0.989c-0.396-0.419-0.714-0.899-0.954-1.44
		c-0.24-0.539-0.36-1.121-0.36-1.746c0-0.623,0.12-1.211,0.36-1.764c0.24-0.552,0.563-1.037,0.972-1.458
		c0.408-0.419,0.875-0.756,1.404-1.008c0.527-0.252,1.067-0.378,1.62-0.378c0.576,0,1.134,0.12,1.674,0.359
		c0.54,0.24,1.014,0.57,1.422,0.99c0.408,0.42,0.738,0.912,0.99,1.477S73.259,23.298,73.259,23.921z"/>
	<path fill="#99C29C" d="M105.011,65.106c-1.224,1.272-2.424,2.358-3.6,3.258s-2.37,1.65-3.582,2.25
		c-1.212,0.601-2.484,1.038-3.816,1.313c-1.332,0.276-2.766,0.414-4.302,0.414c-2.088,0-3.96-0.348-5.616-1.043
		c-1.656-0.696-3.06-1.686-4.212-2.971c-1.152-1.283-2.04-2.838-2.664-4.662c-0.625-1.823-0.936-3.863-0.936-6.119
		c0-1.873,0.198-3.738,0.594-5.599c0.396-1.859,0.972-3.63,1.728-5.31c0.756-1.68,1.68-3.24,2.772-4.68
		c1.092-1.44,2.34-2.683,3.744-3.727c1.404-1.044,2.952-1.865,4.644-2.466c1.692-0.6,3.51-0.9,5.454-0.9
		c1.848,0,3.444,0.265,4.788,0.792c1.344,0.528,2.448,1.201,3.312,2.016c0.864,0.816,1.506,1.717,1.926,2.701s0.63,1.92,0.63,2.808
		c0,1.584-0.324,3.042-0.972,4.374s-1.836,2.532-3.564,3.6c-1.728,1.068-4.104,1.998-7.128,2.79s-6.912,1.429-11.664,1.908
		c0,0.265-0.006,0.522-0.018,0.774c-0.012,0.252-0.018,0.51-0.018,0.773c0,3.217,0.702,5.67,2.106,7.361
		c1.404,1.693,3.522,2.539,6.354,2.539c1.152,0,2.178-0.12,3.078-0.36c0.9-0.239,1.704-0.534,2.412-0.882
		c0.708-0.348,1.332-0.732,1.872-1.152s1.031-0.804,1.476-1.152c0.444-0.348,0.858-0.641,1.242-0.881
		c0.384-0.24,0.768-0.361,1.152-0.361c0.456,0,0.864,0.205,1.224,0.613L105.011,65.106z M94.859,39.474
		c-1.512,0-2.904,0.313-4.176,0.936c-1.272,0.625-2.4,1.482-3.384,2.574c-0.984,1.092-1.824,2.376-2.52,3.852
		c-0.696,1.477-1.236,3.066-1.62,4.771c3.696-0.456,6.66-0.978,8.892-1.565s3.948-1.225,5.148-1.908
		c1.2-0.685,1.992-1.422,2.376-2.215c0.384-0.791,0.576-1.619,0.576-2.483c0-0.433-0.096-0.882-0.288-1.351
		c-0.192-0.468-0.499-0.894-0.918-1.277c-0.42-0.384-0.966-0.702-1.638-0.954S95.818,39.474,94.859,39.474z"/>
	<path fill="#99C29C" d="M119.95,44.585c1.944-3.215,4.14-5.646,6.588-7.289c2.448-1.645,4.968-2.467,7.56-2.467
		c1.536,0,2.885,0.307,4.05,0.918c1.164,0.612,2.112,1.507,2.844,2.682c0.731,1.177,1.229,2.623,1.494,4.339s0.264,3.666,0,5.85
		l-2.736,23.22h-6.372l2.736-23.22c0.336-2.88,0.156-5.009-0.54-6.39c-0.697-1.38-1.98-2.07-3.852-2.07
		c-1.152,0-2.322,0.313-3.51,0.936c-1.188,0.625-2.334,1.513-3.438,2.664c-1.104,1.152-2.13,2.539-3.078,4.158
		c-0.948,1.621-1.758,3.427-2.43,5.418l-2.088,18.504h-6.408l4.392-36.504h3.168c1.44,0,2.16,0.721,2.16,2.16L119.95,44.585z"/>
	<path fill="#99C29C" d="M151.378,64.962c0-0.145,0-0.33,0-0.559c0-0.228,0.018-0.559,0.054-0.99s0.096-0.995,0.18-1.691
		s0.198-1.607,0.342-2.736l2.232-18.252h-4.068c-0.336,0-0.606-0.113-0.81-0.342c-0.204-0.229-0.282-0.582-0.234-1.063l0.288-2.556
		l5.616-0.756l2.736-11.269c0.12-0.359,0.306-0.653,0.558-0.882c0.252-0.228,0.57-0.342,0.954-0.342h3.348l-1.548,12.563h9.576
		l-0.54,4.645h-9.612l-2.196,17.928c-0.12,0.984-0.216,1.777-0.288,2.377c-0.072,0.6-0.126,1.079-0.162,1.439
		c-0.036,0.359-0.061,0.611-0.072,0.756c-0.012,0.145-0.018,0.252-0.018,0.324c0,1.224,0.288,2.13,0.864,2.718
		c0.576,0.589,1.344,0.882,2.304,0.882c0.648,0,1.206-0.09,1.674-0.27c0.468-0.18,0.882-0.379,1.242-0.594
		c0.36-0.217,0.66-0.414,0.9-0.595c0.239-0.18,0.443-0.271,0.612-0.271c0.216,0,0.378,0.049,0.486,0.145s0.21,0.252,0.306,0.469
		l1.368,3.06c-1.176,1.032-2.515,1.842-4.014,2.43c-1.5,0.588-3.006,0.882-4.518,0.882c-2.328,0-4.158-0.635-5.49-1.908
		C152.117,69.234,151.426,67.386,151.378,64.962z"/>
	<path fill="#FFFBCC" d="M191.679,23.664l-3.891-0.119c-0.079-3.17-0.118-5.987-0.118-8.451c0-2.541,0.118-4.723,0.354-6.544
		c0.236-1.821,0.728-3.321,1.474-4.5c0.747-1.179,1.834-2.044,3.263-2.594c1.428-0.55,3.321-0.826,5.68-0.826
		c1.494,0,3.209,0.04,5.149,0.118s3.983,0.157,6.132,0.236s4.356,0.157,6.623,0.236s4.462,0.118,6.584,0.118
		c3.563,0,6.708-0.006,9.434-0.02c2.726-0.013,5.149-0.032,7.272-0.059c2.122-0.025,3.982-0.065,5.581-0.118
		c1.598-0.052,3.06-0.131,4.383-0.236c1.323-0.104,2.555-0.229,3.694-0.374c1.141-0.144,2.3-0.32,3.479-0.531
		c0.445,1.258,0.669,2.293,0.669,3.105c0,1.729-0.728,3.053-2.182,3.97c-1.454,0.918-3.61,1.376-6.466,1.376
		c-2.699,0-5.877-0.164-9.532-0.491s-7.776-0.648-12.362-0.963c-0.078,3.878-0.177,8.019-0.294,12.42
		c-0.118,4.402-0.243,8.956-0.374,13.659c-0.131,4.704-0.269,9.513-0.412,14.426c-0.145,4.913-0.295,9.827-0.452,14.739
		c-0.157,4.914-0.309,9.781-0.452,14.604c-0.145,4.821-0.282,9.486-0.413,13.992l-9.315,1.18l-0.707-0.078
		c0.209-5.006,0.405-9.808,0.589-14.406c0.184-4.6,0.354-9.112,0.511-13.541c0.158-4.428,0.302-8.851,0.433-13.266
		c0.131-4.416,0.236-8.955,0.314-13.621c0.079-4.663,0.144-9.518,0.196-14.563c0.053-5.044,0.079-10.409,0.079-16.096
		c-1.493-0.052-3.014-0.098-4.56-0.137c-1.547-0.04-3.119-0.059-4.717-0.059c-1.599,0-3.093,0.026-4.48,0.079
		c-1.39,0.053-2.661,0.236-3.813,0.55c-1.153,0.314-2.188,0.806-3.105,1.474c-0.917,0.668-1.69,1.611-2.319,2.83
		c-0.629,1.218-1.107,2.771-1.435,4.658c-0.328,1.887-0.491,4.193-0.491,6.918V23.664z"/>
	<path fill="#FFFBCC" d="M247.727,43.001c0.936-1.728,1.926-3.203,2.97-4.428c1.044-1.224,2.13-2.178,3.258-2.861
		c1.128-0.685,2.28-1.08,3.456-1.188s2.363,0.103,3.563,0.63l-1.8,9.324c-1.416-0.6-2.742-0.852-3.978-0.756
		c-1.236,0.096-2.376,0.576-3.42,1.439c-1.044,0.864-1.986,2.125-2.826,3.78c-0.841,1.655-1.572,3.744-2.196,6.265l-2.016,16.631
		h-9.756l4.5-37.151h5.111c1.032,0,1.836,0.252,2.412,0.756s0.864,1.309,0.864,2.412L247.727,43.001z"/>
	<path fill="#FFFBCC" d="M281.386,64.854c-1.584,2.328-3.354,4.164-5.31,5.508c-1.957,1.345-4.11,2.017-6.462,2.017
		c-1.368,0-2.671-0.271-3.906-0.811c-1.236-0.54-2.322-1.355-3.258-2.447c-0.937-1.092-1.674-2.473-2.214-4.141
		s-0.811-3.618-0.811-5.85c0-2.232,0.275-4.398,0.828-6.498c0.552-2.1,1.344-4.074,2.376-5.922c1.031-1.848,2.286-3.547,3.762-5.095
		c1.477-1.548,3.12-2.874,4.933-3.978c1.812-1.104,3.779-1.963,5.903-2.574c2.124-0.612,4.362-0.918,6.715-0.918
		c1.728,0,3.456,0.126,5.184,0.378s3.432,0.69,5.112,1.313l-4.464,36h-5.292c-0.625,0-1.146-0.084-1.566-0.252
		c-0.42-0.167-0.756-0.396-1.008-0.684s-0.427-0.623-0.522-1.008c-0.096-0.384-0.144-0.805-0.144-1.26L281.386,64.854z
		 M283.834,41.13c-0.216-0.023-0.432-0.037-0.648-0.037c-0.216,0-0.432,0-0.647,0c-1.921,0-3.685,0.433-5.292,1.297
		c-1.608,0.863-2.994,2.04-4.158,3.527c-1.164,1.488-2.076,3.217-2.736,5.185s-0.989,4.044-0.989,6.228
		c0,2.496,0.383,4.303,1.151,5.418c0.769,1.116,1.776,1.674,3.024,1.674c0.888,0,1.77-0.324,2.646-0.972s1.698-1.536,2.467-2.663
		c0.768-1.129,1.476-2.455,2.124-3.979c0.647-1.523,1.211-3.15,1.691-4.879L283.834,41.13z"/>
	<path fill="#FFFBCC" d="M322.913,68.652c-1.116,0.9-2.257,1.627-3.42,2.178c-1.165,0.553-2.395,0.949-3.69,1.188
		s-2.724,0.36-4.284,0.36c-2.16,0-4.098-0.367-5.813-1.099c-1.717-0.731-3.181-1.776-4.393-3.132s-2.136-2.994-2.771-4.914
		c-0.637-1.92-0.954-4.068-0.954-6.443c0-3.024,0.491-5.898,1.476-8.623c0.984-2.723,2.353-5.123,4.104-7.199
		s3.834-3.727,6.246-4.95s5.046-1.836,7.901-1.836c2.472,0,4.584,0.432,6.337,1.296c1.751,0.863,3.312,2.184,4.68,3.96l-3.204,3.708
		c-0.216,0.264-0.48,0.486-0.792,0.666c-0.313,0.18-0.648,0.27-1.008,0.27c-0.433,0-0.816-0.113-1.152-0.342
		c-0.336-0.228-0.714-0.474-1.134-0.738c-0.42-0.264-0.931-0.51-1.53-0.738c-0.6-0.227-1.392-0.342-2.376-0.342
		c-1.248,0-2.454,0.349-3.618,1.045c-1.164,0.695-2.19,1.691-3.078,2.988c-0.888,1.295-1.596,2.861-2.124,4.697
		c-0.527,1.836-0.792,3.906-0.792,6.21c0,2.616,0.57,4.603,1.71,5.958c1.14,1.356,2.622,2.034,4.446,2.034
		c1.272,0,2.316-0.181,3.132-0.54c0.816-0.359,1.513-0.756,2.088-1.188c0.576-0.433,1.099-0.828,1.566-1.188s1.014-0.54,1.638-0.54
		c0.336,0,0.654,0.078,0.954,0.234s0.57,0.365,0.811,0.629l2.52,3.025C325.186,66.63,324.029,67.751,322.913,68.652z"/>
	<path fill="#FFFBCC" d="M346.33,18.162l-3.744,30.456h0.864c0.576,0,1.044-0.09,1.404-0.271c0.359-0.18,0.743-0.509,1.151-0.989
		l8.856-10.944c0.432-0.551,0.899-0.972,1.404-1.26c0.504-0.288,1.115-0.432,1.836-0.432h8.892l-11.412,13.535
		c-0.48,0.553-0.966,1.051-1.458,1.494c-0.492,0.445-1.014,0.834-1.565,1.17c0.479,0.385,0.882,0.828,1.205,1.332
		c0.324,0.504,0.631,1.068,0.918,1.692l8.389,17.892h-8.604c-0.72,0-1.32-0.125-1.8-0.377c-0.48-0.252-0.853-0.703-1.116-1.351
		l-6.264-13.644c-0.265-0.576-0.54-0.948-0.828-1.116s-0.78-0.253-1.476-0.253h-1.188l-2.052,16.74h-9.792l6.624-53.676H346.33z"/>
	<path fill="#FFFBCC" d="M374.95,56.61c0,5.496,2.315,8.244,6.947,8.244c1.536,0,2.79-0.198,3.763-0.595
		c0.972-0.396,1.806-0.827,2.502-1.295c0.695-0.469,1.337-0.9,1.926-1.297c0.588-0.396,1.266-0.594,2.034-0.594
		c0.336,0,0.653,0.078,0.954,0.234c0.3,0.156,0.569,0.366,0.81,0.63l2.52,3.024c-1.296,1.295-2.556,2.406-3.779,3.33
		c-1.225,0.924-2.497,1.691-3.816,2.303c-1.32,0.613-2.7,1.063-4.14,1.351c-1.44,0.288-3.024,0.433-4.752,0.433
		c-2.185,0-4.176-0.373-5.977-1.117c-1.8-0.743-3.342-1.793-4.626-3.149c-1.284-1.355-2.28-2.987-2.987-4.896
		c-0.709-1.908-1.063-4.038-1.063-6.391c0-1.967,0.216-3.888,0.648-5.76c0.432-1.872,1.056-3.648,1.872-5.328
		c0.815-1.68,1.806-3.222,2.97-4.626c1.164-1.403,2.489-2.616,3.978-3.636s3.114-1.818,4.878-2.395
		c1.765-0.576,3.642-0.863,5.635-0.863c1.943,0,3.665,0.282,5.166,0.846c1.499,0.564,2.754,1.296,3.762,2.195
		c1.008,0.9,1.77,1.902,2.286,3.007c0.516,1.104,0.773,2.208,0.773,3.312c0,1.656-0.336,3.181-1.008,4.572
		c-0.672,1.393-1.849,2.635-3.528,3.727s-3.96,2.027-6.84,2.808s-6.516,1.386-10.907,1.817V56.61z M384.669,41.022
		c-1.057,0-2.052,0.222-2.988,0.666c-0.936,0.444-1.782,1.067-2.538,1.872s-1.422,1.77-1.998,2.898
		c-0.576,1.128-1.044,2.388-1.403,3.779c2.663-0.383,4.817-0.797,6.462-1.242c1.644-0.443,2.916-0.924,3.815-1.439
		c0.9-0.516,1.5-1.074,1.8-1.674s0.45-1.248,0.45-1.944c0-0.336-0.072-0.678-0.216-1.026c-0.144-0.348-0.36-0.66-0.648-0.936
		c-0.287-0.275-0.66-0.504-1.115-0.684C385.833,41.112,385.293,41.022,384.669,41.022z"/>
	<path fill="#FFFBCC" d="M413.181,43.001c0.936-1.728,1.926-3.203,2.97-4.428c1.044-1.224,2.13-2.178,3.258-2.861
		c1.128-0.685,2.28-1.08,3.456-1.188s2.363,0.103,3.563,0.63l-1.8,9.324c-1.416-0.6-2.742-0.852-3.978-0.756
		c-1.236,0.096-2.376,0.576-3.42,1.439c-1.044,0.864-1.986,2.125-2.826,3.78c-0.841,1.655-1.572,3.744-2.196,6.265l-2.016,16.631
		h-9.756l4.5-37.151h5.111c1.032,0,1.836,0.252,2.412,0.756s0.864,1.309,0.864,2.412L413.181,43.001z"/>
</g>
</svg>
