<?xml version="1.0" encoding="utf-8"?>
<!-- Generator: Adobe Illustrator 16.0.0, SVG Export Plug-In . SVG Version: 6.00 Build 0)  -->
<!DOCTYPE svg PUBLIC "-//W3C//DTD SVG 1.1//EN" "http://www.w3.org/Graphics/SVG/1.1/DTD/svg11.dtd">
<svg version="1.1" id="Layer_1" xmlns="http://www.w3.org/2000/svg" xmlns:xlink="http://www.w3.org/1999/xlink" x="0px" y="0px"
	 width="39.513px" height="79.5px" viewBox="0 0 39.513 79.5" enable-background="new 0 0 39.513 79.5" xml:space="preserve">
<g>
	<circle fill="#FFFACB" cx="26.263" cy="6.25" r="6.25"/>
	<path fill="#FFFACB" d="M35.427,15.5h-4.695h-8.438h-4.997c-0.923,0-1.667,0.419-2.156,1.067c-0.081,0.071-0.163,0.141-0.234,0.225
		l-5.208,8.469l-4.984-9.915c-0.575-1.142-1.964-1.601-3.104-1.027l-0.337,0.168c-1.14,0.574-1.601,1.964-1.026,3.105l6.457,12.843
		c0.439,0.874,0.994,1.744,2.215,1.862s1.866-0.599,2.478-1.317l7.276-8.548c0.198,0.043,0.84,0.069,0.84,0.069v18
		c0,0.057,0.014,0.109,0.017,0.166c-0.004,0.049-0.017,0.096-0.017,0.146v36.375c0,1.277,1.19,2.313,2.659,2.313h0.432
		c1.469,0,2.909-1.035,2.909-2.313V43.5h2v33.688c0,1.277,1.19,2.313,2.659,2.313h0.432c1.469,0,2.909-1.035,2.909-2.313V40.813
		c0-0.045-0.015-0.088-0.019-0.133c0.004-0.061,0.019-0.118,0.019-0.18v-18h1v22.469c0,0.973,0.893,2.531,1.994,2.531h1.324
		c1.102,0,1.682-1.559,1.682-2.531V19.5v-1c0,0-0.13-1.456-0.906-2.234C37.889,15.546,35.525,15.5,35.427,15.5z"/>
</g>
</svg>
