<?xml version="1.0" encoding="utf-8"?>
<!-- Generator: Adobe Illustrator 16.0.0, SVG Export Plug-In . SVG Version: 6.00 Build 0)  -->
<!DOCTYPE svg PUBLIC "-//W3C//DTD SVG 1.1//EN" "http://www.w3.org/Graphics/SVG/1.1/DTD/svg11.dtd">
<svg version="1.1" id="Layer_1" xmlns="http://www.w3.org/2000/svg" xmlns:xlink="http://www.w3.org/1999/xlink" x="0px" y="0px"
	 width="38.791px" height="79px" viewBox="0 0 38.791 79" enable-background="new 0 0 38.791 79" xml:space="preserve">
<path fill="#FFFACB" d="M29.958,26.806c0-0.445-0.361-0.806-0.806-0.806H8.764c-0.445,0-0.806,0.361-0.806,0.806v6.389
	C7.958,33.639,8.319,34,8.764,34h20.389c0.445,0,0.806-0.361,0.806-0.806V26.806z M23.648,33.405c-0.334,0-0.604-0.271-0.604-0.604
	c0-0.334,0.27-0.604,0.604-0.604c0.333,0,0.604,0.271,0.604,0.604C24.252,33.135,23.981,33.405,23.648,33.405z M25.662,33.405
	c-0.333,0-0.604-0.271-0.604-0.604c0-0.334,0.271-0.604,0.604-0.604c0.334,0,0.604,0.271,0.604,0.604
	C26.266,33.135,25.996,33.405,25.662,33.405z M27.676,33.405c-0.334,0-0.604-0.271-0.604-0.604c0-0.334,0.271-0.604,0.604-0.604
	c0.333,0,0.604,0.271,0.604,0.604C28.28,33.135,28.009,33.405,27.676,33.405z"/>
<path fill="#FFFACB" d="M29.958,35.806c0-0.445-0.361-0.806-0.806-0.806H8.764c-0.445,0-0.806,0.361-0.806,0.806v6.389
	C7.958,42.639,8.319,43,8.764,43h20.389c0.445,0,0.806-0.361,0.806-0.806V35.806z M23.648,41.035c-0.334,0-0.604-0.27-0.604-0.604
	c0-0.333,0.27-0.604,0.604-0.604c0.333,0,0.604,0.271,0.604,0.604C24.252,40.765,23.981,41.035,23.648,41.035z M25.662,41.035
	c-0.333,0-0.604-0.27-0.604-0.604c0-0.333,0.271-0.604,0.604-0.604c0.334,0,0.604,0.271,0.604,0.604
	C26.266,40.765,25.996,41.035,25.662,41.035z M27.676,41.035c-0.334,0-0.604-0.27-0.604-0.604c0-0.333,0.271-0.604,0.604-0.604
	c0.333,0,0.604,0.271,0.604,0.604C28.28,40.765,28.009,41.035,27.676,41.035z"/>
<path fill="#FFFACB" d="M29.958,44.806c0-0.445-0.361-0.806-0.806-0.806H8.764c-0.445,0-0.806,0.361-0.806,0.806v6.389
	C7.958,51.639,8.319,52,8.764,52h20.389c0.445,0,0.806-0.361,0.806-0.806V44.806z M23.648,50.523c-0.334,0-0.604-0.271-0.604-0.604
	c0-0.334,0.27-0.604,0.604-0.604c0.333,0,0.604,0.271,0.604,0.604C24.252,50.252,23.981,50.523,23.648,50.523z M25.662,50.523
	c-0.333,0-0.604-0.271-0.604-0.604c0-0.334,0.271-0.604,0.604-0.604c0.334,0,0.604,0.271,0.604,0.604
	C26.266,50.252,25.996,50.523,25.662,50.523z M27.676,50.523c-0.334,0-0.604-0.271-0.604-0.604c0-0.334,0.271-0.604,0.604-0.604
	c0.333,0,0.604,0.271,0.604,0.604C28.28,50.252,28.009,50.523,27.676,50.523z"/>
<path fill="none" stroke="#FFFACB" stroke-miterlimit="10" d="M9.542,30.167c-3.583,0-9.042-0.75-9.042-9.042
	S11.292,7.833,11.292,7.833"/>
<path fill="none" stroke="#FFFACB" stroke-miterlimit="10" d="M29.25,47.833c3.583,0,9.042,0.75,9.042,9.042
	S27.5,70.166,27.5,70.166"/>
<path fill="#FFFACB" d="M17.958,0h-6c-0.552,0-1,0.448-1,1v20c0,0.552,0.448,1,1,1h6c0.552,0,1-0.448,1-1V1
	C18.958,0.448,18.51,0,17.958,0z M14.917,1.917c-0.253,0-0.458-0.205-0.458-0.458S14.663,1,14.917,1s0.458,0.205,0.458,0.458
	S15.17,1.917,14.917,1.917z"/>
<path fill="#FFFACB" d="M27.958,58c0-0.552-0.448-1-1-1h-6c-0.552,0-1,0.448-1,1v20c0,0.553,0.448,1,1,1h6c0.552,0,1-0.447,1-1V58z
	 M24.042,59.292c-0.253,0-0.458-0.205-0.458-0.458s0.205-0.458,0.458-0.458S24.5,58.58,24.5,58.833S24.295,59.292,24.042,59.292z"/>
</svg>
